<svg width="189" height="115" viewBox="0 0 189 115" fill="none" xmlns="http://www.w3.org/2000/svg">
<path d="M176.021 38.5508L150.952 13.2171C150.937 13.2015 150.92 13.187 150.905 13.1714C150.889 13.1557 150.871 13.1346 150.853 13.1166C143.538 5.72451 133.893 1.15152 123.592 0.189928C113.29 -0.771666 102.981 1.93875 94.4492 7.85151C85.917 1.93875 75.6077 -0.771666 65.3063 0.189928C55.0049 1.15152 45.3608 5.72451 38.045 13.1166L12.9762 38.4497C5.16566 46.3445 0.554602 56.9029 0.046869 68.0548C-0.460868 79.2072 3.17129 90.1489 10.2315 98.7354C17.2916 107.321 27.2706 112.934 38.2125 114.472C49.1542 116.009 60.2701 113.362 69.3809 107.048C76.7574 112.161 85.492 114.897 94.4363 114.9C103.382 114.903 112.117 112.171 119.497 107.063C128.597 113.416 139.718 116.1 150.677 114.589C161.636 113.077 171.639 107.479 178.722 98.8947C185.804 90.3097 189.454 79.3586 188.955 68.1936C188.455 57.0278 183.842 46.4545 176.021 38.5508ZM55.7678 94.3621C50.1088 97.0938 43.6762 97.7152 37.6072 96.1174C31.5383 94.52 26.2236 90.8053 22.6025 85.6302C18.9815 80.4556 17.2871 74.1546 17.8189 67.8396C18.3507 61.5246 21.0745 55.6028 25.5088 51.1208L50.5772 25.787C54.4678 21.8601 59.4666 19.2467 64.8863 18.3057C70.306 17.3647 75.8811 18.1423 80.8458 20.5316L63.1134 38.4497C56.3131 45.2861 51.9108 54.1815 50.5772 63.7811C50.2835 65.8798 50.1351 67.9966 50.1337 70.1166C50.1162 78.4967 52.4414 86.711 56.8423 93.8142C56.4869 94.0057 56.1292 94.1892 55.7678 94.3621ZM101.415 70.2196C96.4226 75.2312 129.12 96.702 94.4676 96.9251C59.8147 97.1487 92.608 75.1273 87.6323 70.0994C82.657 65.0711 67.9343 77.2105 67.9223 70.0994C67.9108 62.9887 70.6886 56.1632 75.6478 51.1181L94.4676 33.6563L113.251 51.1181C118.228 56.1613 121.024 62.9934 121.024 70.1166C121.024 77.239 106.392 65.1763 101.415 70.2196ZM163.487 89.2187C159.577 93.1592 154.553 95.774 149.108 96.702C143.663 97.6295 138.068 96.8241 133.096 94.3965C132.739 94.2223 132.385 94.0402 132.035 93.8492C136.449 86.738 138.782 78.5103 138.764 70.1166C138.762 67.9966 138.615 65.8798 138.321 63.7811C136.988 54.1815 132.585 45.2861 125.785 38.4497L108.16 20.64L108.061 20.5394C113.023 18.1512 118.596 17.3731 124.013 18.3118C129.43 19.2507 134.427 21.8603 138.318 25.7828C138.336 25.8009 138.353 25.8202 138.371 25.8382C138.388 25.8563 138.403 25.8683 138.418 25.8839L163.37 51.099L163.489 51.2196C168.475 56.2587 171.276 63.0936 171.276 70.2196C171.276 77.3456 168.473 84.1796 163.487 89.2187Z" fill="url(#paint0_linear)"/>
<defs>
<linearGradient id="paint0_linear" x1="25.4005" y1="33.6566" x2="180.336" y2="100.017" gradientUnits="userSpaceOnUse">
<stop stop-color="#8BBEA8"/>
<stop offset="1" stop-color="#3AABA4"/>
</linearGradient>
</defs>
</svg>
