<svg width="36" height="22" fill="none"><path d="M33.357 7.23l-4.75-4.751-.01-.009-.01-.01A8.399 8.399 0 0017.9 1.472a8.4 8.4 0 00-10.69.988L2.46 7.21a8.398 8.398 0 0010.689 12.864 8.4 8.4 0 009.497.003A8.397 8.397 0 0033.357 7.229zM10.568 17.694a5.038 5.038 0 01-5.734-8.109l4.75-4.75a5.047 5.047 0 015.737-.986l-3.36 3.36a8.335 8.335 0 00-2.376 4.75c-.056.394-.084.791-.084 1.188a8.341 8.341 0 001.27 4.445c-.066.035-.134.07-.203.102zm8.65-4.527c-.945.94 5.25 4.966-1.316 5.008-6.567.042-.352-4.088-1.295-5.03-.943-.944-3.733 1.333-3.735 0a5.04 5.04 0 011.464-3.56l3.566-3.275 3.56 3.275a5.045 5.045 0 011.473 3.563c0 1.335-2.773-.927-3.716.019zm11.764 3.563a5.047 5.047 0 01-5.96.868 8.341 8.341 0 001.275-4.45c0-.398-.029-.795-.085-1.188a8.335 8.335 0 00-2.375-4.75l-3.34-3.34-.019-.02a5.047 5.047 0 015.734.984l.01.01.009.009 4.728 4.728.023.023a5.04 5.04 0 010 7.126z" fill="url(#paint0_linear)"/><defs><linearGradient id="paint0_linear" x1="4.814" y1="6.311" x2="34.078" y2="18.978" gradientUnits="userSpaceOnUse"><stop stop-color="#5A5A5A"/><stop offset="1" stop-color="#DE5B5B"/></linearGradient></defs></svg>
