<svg width="100" height="20" fill="none"><path d="M13.978 15h2.856L10.198.3H7.51L.895 15h2.814l1.449-3.402h7.35L13.978 15zM6.082 9.456L8.833 3.03l2.772 6.426H6.082zm15.837 5.691c3.15 0 5.082-1.365 5.082-3.465 0-4.389-6.93-2.373-6.93-4.641 0-.735.756-1.26 2.352-1.26 1.071 0 2.142.21 3.213.84l1.008-1.995c-1.008-.609-2.709-.966-4.2-.966-3.024 0-4.935 1.386-4.935 3.507 0 4.473 6.93 2.457 6.93 4.599 0 .777-.693 1.239-2.352 1.239-1.407 0-2.919-.462-3.906-1.113l-1.008 1.995c1.008.714 2.877 1.26 4.746 1.26zm10.913 0c3.15 0 5.082-1.365 5.082-3.465 0-4.389-6.93-2.373-6.93-4.641 0-.735.756-1.26 2.352-1.26 1.07 0 2.142.21 3.213.84l1.008-1.995c-1.008-.609-2.71-.966-4.2-.966-3.024 0-4.935 1.386-4.935 3.507 0 4.473 6.93 2.457 6.93 4.599 0 .777-.693 1.239-2.352 1.239-1.407 0-2.92-.462-3.906-1.113l-1.008 1.995c1.008.714 2.877 1.26 4.746 1.26zm17.99-5.691c0-3.507-2.395-5.796-5.67-5.796-3.34 0-5.797 2.394-5.797 5.733 0 3.339 2.436 5.754 6.195 5.754 1.932 0 3.507-.63 4.515-1.827l-1.407-1.617c-.798.819-1.785 1.218-3.045 1.218-1.953 0-3.318-1.05-3.633-2.688h8.8c.02-.252.041-.567.041-.777zm-5.67-3.696c1.721 0 2.96 1.113 3.17 2.73H41.96c.252-1.638 1.491-2.73 3.192-2.73zm14.302 6.762c-.4.315-.924.462-1.47.462-1.008 0-1.554-.588-1.554-1.68V5.97h3.003v-2.1H56.43V1.308h-2.625V3.87h-1.848v2.1h1.848v5.397c0 2.478 1.407 3.78 3.864 3.78.945 0 1.89-.252 2.52-.756l-.735-1.869z" fill="#5A5A5A"/><path d="M73.92 15h2.204L69.446.3h-2.079L60.71 15h2.163l1.617-3.675h7.812L73.92 15zm-8.695-5.355l3.171-7.203 3.171 7.203h-6.342zm16.389-5.88c-1.638 0-3.066.63-3.97 1.869V3.87h-1.931v15.204h2.016V13.32c.924 1.197 2.31 1.806 3.885 1.806 3.255 0 5.628-2.268 5.628-5.691 0-3.402-2.373-5.67-5.628-5.67zm-.168 9.597c-2.121 0-3.738-1.554-3.738-3.927 0-2.352 1.617-3.906 3.738-3.906 2.142 0 3.759 1.554 3.759 3.906 0 2.373-1.617 3.927-3.76 3.927zm12.172-9.597c-1.638 0-3.066.63-3.969 1.869V3.87h-1.932v15.204h2.016V13.32c.924 1.197 2.31 1.806 3.885 1.806 3.255 0 5.628-2.268 5.628-5.691 0-3.402-2.373-5.67-5.628-5.67zm-.168 9.597c-2.12 0-3.738-1.554-3.738-3.927 0-2.352 1.617-3.906 3.738-3.906 2.142 0 3.76 1.554 3.76 3.906 0 2.373-1.618 3.927-3.76 3.927z" fill="#DE5B5B"/></svg>
