<svg width="869" height="835" fill="none" xmlns="http://www.w3.org/2000/svg"><path fill="#A5C5B7" d="M0 0h869v835H0z"/><path d="M279.243 669.208c-1.421 0-2.73-.191-3.926-.572-1.178-.381-2.192-.945-3.042-1.69l.962-1.976c.902.728 1.829 1.257 2.782 1.586.971.312 2.054.468 3.25.468 1.37 0 2.427-.251 3.172-.754.746-.52 1.118-1.248 1.118-2.184 0-.797-.346-1.387-1.04-1.768-.693-.399-1.802-.771-3.328-1.118-1.456-.312-2.652-.667-3.588-1.066-.936-.399-1.672-.936-2.21-1.612-.52-.693-.78-1.569-.78-2.626 0-1.075.278-2.019.832-2.834.572-.815 1.378-1.447 2.418-1.898 1.04-.468 2.245-.702 3.614-.702 1.283 0 2.488.199 3.614.598 1.144.381 2.08.936 2.808 1.664l-.936 1.976c-.849-.693-1.724-1.205-2.626-1.534a7.683 7.683 0 00-2.834-.52c-1.317 0-2.357.277-3.12.832-.745.537-1.118 1.291-1.118 2.262 0 .832.33 1.465.988 1.898.659.416 1.716.797 3.172 1.144 1.526.347 2.756.711 3.692 1.092.954.364 1.708.875 2.262 1.534.572.641.858 1.482.858 2.522 0 1.057-.286 1.985-.858 2.782-.554.797-1.36 1.413-2.418 1.846-1.04.433-2.279.65-3.718.65zm20.851-6.11h-8.97c.191 2.687 1.526 4.03 4.004 4.03 1.456 0 2.774-.477 3.952-1.43l.806 1.846c-.589.503-1.317.901-2.184 1.196a8.17 8.17 0 01-2.652.442c-2.028 0-3.631-.581-4.81-1.742-1.161-1.161-1.742-2.765-1.742-4.81 0-1.3.252-2.453.754-3.458.52-1.005 1.24-1.785 2.158-2.34.936-.555 1.994-.832 3.172-.832 1.716 0 3.06.555 4.03 1.664.988 1.109 1.482 2.643 1.482 4.602v.832zm-5.46-5.174c-1.005 0-1.811.321-2.418.962-.589.624-.944 1.525-1.066 2.704h6.682c-.052-1.179-.355-2.08-.91-2.704-.537-.641-1.3-.962-2.288-.962zM302.988 669v-18.33h2.626V669h-2.626zm11.601-13c1.699 0 2.955.425 3.77 1.274.832.849 1.248 2.141 1.248 3.874V669h-2.522v-2.106c-.329.745-.823 1.317-1.482 1.716-.641.381-1.395.572-2.262.572a5.268 5.268 0 01-2.288-.494 4.12 4.12 0 01-1.638-1.43 3.737 3.737 0 01-.572-2.028c0-.919.234-1.638.702-2.158.485-.537 1.274-.919 2.366-1.144 1.109-.225 2.626-.338 4.55-.338h.598v-.754c0-.971-.208-1.673-.624-2.106-.399-.433-1.057-.65-1.976-.65-1.439 0-2.877.442-4.316 1.326l-.78-1.846c.676-.468 1.491-.841 2.444-1.118.971-.295 1.898-.442 2.782-.442zm-.78 11.232c.953 0 1.733-.321 2.34-.962.607-.659.91-1.499.91-2.522v-.676h-.468c-1.352 0-2.392.061-3.12.182-.728.121-1.248.329-1.56.624-.312.277-.468.685-.468 1.222 0 .607.217 1.118.65 1.534.451.399 1.023.598 1.716.598zM337.759 656c2.843 0 4.264 1.707 4.264 5.122V669h-2.626v-7.774c0-1.075-.191-1.855-.572-2.34-.364-.503-.962-.754-1.794-.754-.953 0-1.707.329-2.262.988-.555.659-.832 1.56-.832 2.704V669h-2.626v-7.774c0-1.075-.191-1.855-.572-2.34-.381-.503-.979-.754-1.794-.754-.971 0-1.733.329-2.288.988-.555.659-.832 1.56-.832 2.704V669h-2.626v-12.688h2.574v1.924a4.184 4.184 0 011.612-1.638c.676-.399 1.447-.598 2.314-.598 1.959 0 3.233.815 3.822 2.444a4.386 4.386 0 011.716-1.794c.745-.433 1.586-.65 2.522-.65zm13.164 0c1.698 0 2.955.425 3.77 1.274.832.849 1.248 2.141 1.248 3.874V669h-2.522v-2.106c-.33.745-.824 1.317-1.482 1.716-.642.381-1.396.572-2.262.572a5.268 5.268 0 01-2.288-.494c-.694-.347-1.24-.823-1.638-1.43a3.729 3.729 0 01-.572-2.028c0-.919.234-1.638.702-2.158.485-.537 1.274-.919 2.366-1.144 1.109-.225 2.626-.338 4.55-.338h.598v-.754c0-.971-.208-1.673-.624-2.106-.399-.433-1.058-.65-1.976-.65-1.439 0-2.878.442-4.316 1.326l-.78-1.846c.676-.468 1.49-.841 2.444-1.118.97-.295 1.898-.442 2.782-.442zm-.78 11.232c.953 0 1.733-.321 2.34-.962.606-.659.91-1.499.91-2.522v-.676h-.468c-1.352 0-2.392.061-3.12.182-.728.121-1.248.329-1.56.624-.312.277-.468.685-.468 1.222 0 .607.216 1.118.65 1.534.45.399 1.022.598 1.716.598zm15.396-.078c.399 0 .789-.026 1.17-.078l-.13 2.002a8.585 8.585 0 01-1.352.104c-1.647 0-2.877-.399-3.692-1.196-.797-.815-1.196-1.985-1.196-3.51v-6.136h-2.47v-2.028h2.47v-3.822h2.626v3.822h3.484v2.028h-3.484v6.032c0 1.855.858 2.782 2.574 2.782zm21.715-16.484V669h-2.6v-2.184a4.098 4.098 0 01-1.664 1.768c-.728.399-1.568.598-2.522.598-1.092 0-2.071-.277-2.938-.832-.849-.555-1.516-1.335-2.002-2.34-.468-1.005-.702-2.158-.702-3.458 0-1.317.234-2.47.702-3.458.486-.988 1.153-1.751 2.002-2.288.85-.537 1.829-.806 2.938-.806.954 0 1.786.208 2.496.624a3.979 3.979 0 011.664 1.716v-7.67h2.626zm-6.162 16.432c1.144 0 2.02-.39 2.626-1.17.624-.78.936-1.889.936-3.328 0-1.439-.312-2.548-.936-3.328-.606-.78-1.482-1.17-2.626-1.17s-2.036.39-2.678 1.17c-.624.763-.936 1.855-.936 3.276 0 1.421.321 2.539.962 3.354.642.797 1.526 1.196 2.652 1.196zM396.22 656c1.698 0 2.955.425 3.77 1.274.832.849 1.248 2.141 1.248 3.874V669h-2.522v-2.106c-.33.745-.824 1.317-1.482 1.716-.642.381-1.396.572-2.262.572a5.268 5.268 0 01-2.288-.494c-.694-.347-1.24-.823-1.638-1.43a3.729 3.729 0 01-.572-2.028c0-.919.234-1.638.702-2.158.485-.537 1.274-.919 2.366-1.144 1.109-.225 2.626-.338 4.55-.338h.598v-.754c0-.971-.208-1.673-.624-2.106-.399-.433-1.058-.65-1.976-.65-1.439 0-2.878.442-4.316 1.326l-.78-1.846c.676-.468 1.49-.841 2.444-1.118.97-.295 1.898-.442 2.782-.442zm-.78 11.232c.953 0 1.733-.321 2.34-.962.606-.659.91-1.499.91-2.522v-.676h-.468c-1.352 0-2.392.061-3.12.182-.728.121-1.248.329-1.56.624-.312.277-.468.685-.468 1.222 0 .607.216 1.118.65 1.534.45.399 1.022.598 1.716.598zm15.396-.078c.398 0 .788-.026 1.17-.078l-.13 2.002a8.595 8.595 0 01-1.352.104c-1.647 0-2.878-.399-3.692-1.196-.798-.815-1.196-1.985-1.196-3.51v-6.136h-2.47v-2.028h2.47v-3.822h2.626v3.822h3.484v2.028h-3.484v6.032c0 1.855.858 2.782 2.574 2.782zM419.3 656c1.698 0 2.955.425 3.77 1.274.832.849 1.248 2.141 1.248 3.874V669h-2.522v-2.106c-.33.745-.824 1.317-1.482 1.716-.642.381-1.396.572-2.262.572a5.268 5.268 0 01-2.288-.494c-.694-.347-1.24-.823-1.638-1.43a3.729 3.729 0 01-.572-2.028c0-.919.234-1.638.702-2.158.485-.537 1.274-.919 2.366-1.144 1.109-.225 2.626-.338 4.55-.338h.598v-.754c0-.971-.208-1.673-.624-2.106-.399-.433-1.058-.65-1.976-.65-1.439 0-2.878.442-4.316 1.326l-.78-1.846c.676-.468 1.49-.841 2.444-1.118.97-.295 1.898-.442 2.782-.442zm-.78 11.232c.953 0 1.733-.321 2.34-.962.606-.659.91-1.499.91-2.522v-.676h-.468c-1.352 0-2.392.061-3.12.182-.728.121-1.248.329-1.56.624-.312.277-.468.685-.468 1.222 0 .607.216 1.118.65 1.534.45.399 1.022.598 1.716.598zM434.748 656c3.033 0 4.55 1.707 4.55 5.122V669h-2.626v-7.748c0-1.075-.217-1.863-.65-2.366-.416-.503-1.075-.754-1.976-.754-1.057 0-1.907.329-2.548.988s-.962 1.543-.962 2.652V669h-2.626v-12.688h2.574v2.028a4.22 4.22 0 011.742-1.742c.745-.399 1.586-.598 2.522-.598zm19.946.312v11.674c0 1.941-.52 3.406-1.56 4.394-1.022.988-2.539 1.482-4.55 1.482-1.092 0-2.132-.147-3.12-.442a8.565 8.565 0 01-2.6-1.222l.806-1.898c.832.537 1.63.919 2.392 1.144.78.243 1.612.364 2.496.364 2.375 0 3.562-1.205 3.562-3.614v-2.002a4.05 4.05 0 01-1.664 1.794c-.745.416-1.612.624-2.6.624-1.109 0-2.097-.26-2.964-.78-.866-.52-1.542-1.257-2.028-2.21-.468-.953-.702-2.054-.702-3.302 0-1.248.243-2.349.728-3.302.486-.953 1.153-1.69 2.002-2.21.867-.537 1.855-.806 2.964-.806.971 0 1.82.208 2.548.624a4.054 4.054 0 011.69 1.768v-2.08h2.6zm-6.214 10.218c1.127 0 2.011-.373 2.652-1.118.642-.745.962-1.777.962-3.094 0-1.3-.32-2.323-.962-3.068-.624-.763-1.508-1.144-2.652-1.144-1.144 0-2.045.373-2.704 1.118-.641.745-.962 1.777-.962 3.094s.33 2.349.988 3.094c.659.745 1.552 1.118 2.678 1.118zm28.429-15.86V669h-2.6v-2.184a4.104 4.104 0 01-1.664 1.768c-.728.399-1.569.598-2.522.598-1.092 0-2.072-.277-2.938-.832-.85-.555-1.517-1.335-2.002-2.34-.468-1.005-.702-2.158-.702-3.458 0-1.317.234-2.47.702-3.458.485-.988 1.152-1.751 2.002-2.288.849-.537 1.828-.806 2.938-.806.953 0 1.785.208 2.496.624a3.984 3.984 0 011.664 1.716v-7.67h2.626zm-6.162 16.432c1.144 0 2.019-.39 2.626-1.17.624-.78.936-1.889.936-3.328 0-1.439-.312-2.548-.936-3.328-.607-.78-1.482-1.17-2.626-1.17s-2.037.39-2.678 1.17c-.624.763-.936 1.855-.936 3.276 0 1.421.32 2.539.962 3.354.641.797 1.525 1.196 2.652 1.196zM480.57 669v-12.688h2.626V669h-2.626zm-.182-18.356h3.016v2.73h-3.016v-2.73zM508.048 669l-1.95-4.524h-9.282l-1.95 4.524h-2.704l8.164-18.33h2.236l8.164 18.33h-2.678zm-10.322-6.656h7.462l-3.718-8.684-3.744 8.684zm19.384 6.838c-2.201 0-3.96-.537-5.278-1.612l.806-1.898c1.3 1.005 2.817 1.508 4.55 1.508.85 0 1.5-.139 1.95-.416.451-.295.676-.702.676-1.222 0-.451-.156-.806-.468-1.066-.294-.26-.814-.477-1.56-.65l-2.106-.468c-1.126-.26-1.976-.685-2.548-1.274-.572-.589-.858-1.335-.858-2.236 0-1.144.46-2.071 1.378-2.782.936-.711 2.158-1.066 3.666-1.066.902 0 1.76.147 2.574.442a6.112 6.112 0 012.106 1.196l-.806 1.846c-1.248-.988-2.539-1.482-3.874-1.482-.797 0-1.43.156-1.898.468-.45.312-.676.737-.676 1.274 0 .433.139.789.416 1.066.295.26.754.459 1.378.598l2.158.494c1.231.277 2.132.711 2.704 1.3.572.572.858 1.326.858 2.262 0 1.144-.468 2.054-1.404 2.73-.918.659-2.166.988-3.744.988zm12.543 0c-2.201 0-3.96-.537-5.278-1.612l.806-1.898c1.3 1.005 2.817 1.508 4.55 1.508.85 0 1.5-.139 1.95-.416.451-.295.676-.702.676-1.222 0-.451-.156-.806-.468-1.066-.294-.26-.814-.477-1.56-.65l-2.106-.468c-1.126-.26-1.976-.685-2.548-1.274-.572-.589-.858-1.335-.858-2.236 0-1.144.46-2.071 1.378-2.782.936-.711 2.158-1.066 3.666-1.066.902 0 1.76.147 2.574.442a6.112 6.112 0 012.106 1.196l-.806 1.846c-1.248-.988-2.539-1.482-3.874-1.482-.797 0-1.43.156-1.898.468-.45.312-.676.737-.676 1.274 0 .433.139.789.416 1.066.295.26.754.459 1.378.598l2.158.494c1.231.277 2.132.711 2.704 1.3.572.572.858 1.326.858 2.262 0 1.144-.468 2.054-1.404 2.73-.918.659-2.166.988-3.744.988zm18.939-6.084h-8.97c.191 2.687 1.526 4.03 4.004 4.03 1.456 0 2.774-.477 3.952-1.43l.806 1.846c-.589.503-1.317.901-2.184 1.196a8.17 8.17 0 01-2.652.442c-2.028 0-3.631-.581-4.81-1.742-1.161-1.161-1.742-2.765-1.742-4.81 0-1.3.252-2.453.754-3.458.52-1.005 1.24-1.785 2.158-2.34.936-.555 1.994-.832 3.172-.832 1.716 0 3.06.555 4.03 1.664.988 1.109 1.482 2.643 1.482 4.602v.832zm-5.46-5.174c-1.005 0-1.811.321-2.418.962-.589.624-.944 1.525-1.066 2.704h6.682c-.052-1.179-.355-2.08-.91-2.704-.537-.641-1.3-.962-2.288-.962zm14.233 9.23c.399 0 .789-.026 1.17-.078l-.13 2.002a8.585 8.585 0 01-1.352.104c-1.647 0-2.877-.399-3.692-1.196-.797-.815-1.196-1.985-1.196-3.51v-6.136h-2.47v-2.028h2.47v-3.822h2.626v3.822h3.484v2.028h-3.484v6.032c0 1.855.858 2.782 2.574 2.782zM581.707 669l-1.95-4.524h-9.282l-1.95 4.524h-2.704l8.164-18.33h2.236l8.164 18.33h-2.678zm-10.322-6.656h7.462l-3.718-8.684-3.744 8.684zM593.286 656c1.092 0 2.063.277 2.912.832.867.555 1.534 1.335 2.002 2.34.486 1.005.728 2.167.728 3.484 0 1.3-.234 2.444-.702 3.432-.468.988-1.135 1.751-2.002 2.288-.849.537-1.828.806-2.938.806-.953 0-1.794-.199-2.522-.598a4.104 4.104 0 01-1.664-1.768v6.864h-2.626v-17.368h2.626v2.08a4.104 4.104 0 011.664-1.768c.728-.416 1.569-.624 2.522-.624zm-.624 11.102c1.144 0 2.028-.381 2.652-1.144.624-.78.936-1.881.936-3.302 0-1.439-.32-2.557-.962-3.354-.624-.797-1.499-1.196-2.626-1.196-1.144 0-2.028.39-2.652 1.17-.606.78-.91 1.889-.91 3.328 0 1.439.304 2.548.91 3.328.624.78 1.508 1.17 2.652 1.17zM608.648 656c1.092 0 2.062.277 2.912.832.866.555 1.534 1.335 2.002 2.34.485 1.005.728 2.167.728 3.484 0 1.3-.234 2.444-.702 3.432-.468.988-1.136 1.751-2.002 2.288-.85.537-1.829.806-2.938.806-.954 0-1.794-.199-2.522-.598a4.098 4.098 0 01-1.664-1.768v6.864h-2.626v-17.368h2.626v2.08a4.098 4.098 0 011.664-1.768c.728-.416 1.568-.624 2.522-.624zm-.624 11.102c1.144 0 2.028-.381 2.652-1.144.624-.78.936-1.881.936-3.302 0-1.439-.321-2.557-.962-3.354-.624-.797-1.5-1.196-2.626-1.196-1.144 0-2.028.39-2.652 1.17-.607.78-.91 1.889-.91 3.328 0 1.439.303 2.548.91 3.328.624.78 1.508 1.17 2.652 1.17zm8.506-1.196h3.094V669h-3.094v-3.094zM211.071 710l-1.404-3.258h-6.624L201.639 710h-1.512l5.58-12.69h1.278l5.58 12.69h-1.494zm-7.506-4.482h5.58l-2.79-6.498-2.79 6.498zm15.076-4.5c.768 0 1.446.192 2.034.576.588.384 1.044.924 1.368 1.62.324.684.486 1.482.486 2.394 0 .912-.162 1.71-.486 2.394-.324.672-.78 1.194-1.368 1.566-.576.372-1.254.558-2.034.558-.684 0-1.284-.15-1.8-.45a2.909 2.909 0 01-1.152-1.278v4.842h-1.458v-12.006h1.458v1.512a2.909 2.909 0 011.152-1.278c.516-.3 1.116-.45 1.8-.45zm-.288 7.902c.852 0 1.512-.288 1.98-.864.468-.576.702-1.392.702-2.448s-.234-1.878-.702-2.466c-.468-.6-1.128-.9-1.98-.9-.852 0-1.512.288-1.98.864-.456.576-.684 1.398-.684 2.466 0 1.068.228 1.896.684 2.484.468.576 1.128.864 1.98.864zm6.354 1.08v-12.69h1.458V710h-1.458zm4.184 0v-8.766h1.458V710h-1.458zm-.144-12.564h1.764v1.638h-1.764v-1.638zM240.887 710h-1.89l-4.464-4.194V710h-1.458v-12.69h1.458v7.902l4.086-3.96h1.854l-4.356 4.194 4.77 4.554zm4.681-8.982c1.116 0 1.944.288 2.484.864.552.564.828 1.428.828 2.592V710h-1.422v-1.494a2.627 2.627 0 01-1.044 1.206c-.468.276-1.008.414-1.62.414a3.603 3.603 0 01-1.566-.342 2.795 2.795 0 01-1.116-.954 2.358 2.358 0 01-.414-1.35c0-.66.168-1.17.504-1.53.336-.372.888-.636 1.656-.792.768-.168 1.836-.252 3.204-.252h.396v-.594c0-.732-.15-1.26-.45-1.584-.3-.336-.786-.504-1.458-.504-1.008 0-2.01.312-3.006.936l-.486-1.062c.456-.324 1.002-.582 1.638-.774a6.226 6.226 0 011.872-.306zm-.576 7.956c.72 0 1.308-.24 1.764-.72.468-.492.702-1.122.702-1.89v-.522h-.324c-1.056 0-1.86.048-2.412.144-.552.084-.948.234-1.188.45-.228.204-.342.51-.342.918 0 .468.168.858.504 1.17.348.3.78.45 1.296.45zm9.527 1.152c-1.476 0-2.646-.378-3.51-1.134l.486-1.08a4.9 4.9 0 001.422.81 5.466 5.466 0 001.656.234c.648 0 1.14-.108 1.476-.324.348-.228.522-.552.522-.972 0-.348-.114-.624-.342-.828-.228-.204-.606-.366-1.134-.486l-1.476-.342c-.744-.168-1.314-.456-1.71-.864-.396-.408-.594-.912-.594-1.512 0-.78.306-1.41.918-1.89.612-.48 1.428-.72 2.448-.72.612 0 1.194.102 1.746.306a3.596 3.596 0 011.386.846l-.486 1.062c-.804-.684-1.686-1.026-2.646-1.026-.612 0-1.092.12-1.44.36-.336.228-.504.552-.504.972 0 .348.102.63.306.846.216.204.558.36 1.026.468l1.494.36c.816.192 1.422.486 1.818.882.396.384.594.888.594 1.512 0 .768-.312 1.38-.936 1.836-.612.456-1.452.684-2.52.684zm5.679-.126v-8.766h1.458V710h-1.458zm-.144-12.564h1.764v1.638h-1.764v-1.638zM269.022 710v-8.766h1.458V710h-1.458zm-.144-12.564h1.764v1.638h-1.764v-1.638zm8.737 3.582c2.1 0 3.15 1.158 3.15 3.474V710h-1.458v-5.418c0-.816-.162-1.41-.486-1.782-.312-.372-.816-.558-1.512-.558-.804 0-1.446.246-1.926.738s-.72 1.158-.72 1.998V710h-1.458v-8.766h1.44v1.44c.288-.54.69-.948 1.206-1.224.516-.288 1.104-.432 1.764-.432zm5.821 8.982v-8.766h1.458V710h-1.458zm-.144-12.564h1.764v1.638h-1.764v-1.638zm16.744-.126V710h-1.458v-1.602a2.877 2.877 0 01-1.17 1.278c-.504.3-1.098.45-1.782.45-.768 0-1.446-.192-2.034-.576-.588-.384-1.044-.918-1.368-1.602-.324-.696-.486-1.5-.486-2.412 0-.9.162-1.692.486-2.376.324-.684.78-1.212 1.368-1.584.588-.372 1.266-.558 2.034-.558.684 0 1.278.15 1.782.45.516.3.906.726 1.17 1.278v-5.436h1.458zm-4.122 11.61c.852 0 1.506-.288 1.962-.864.468-.588.702-1.416.702-2.484s-.234-1.89-.702-2.466c-.456-.576-1.11-.864-1.962-.864-.852 0-1.518.288-1.998.864-.468.576-.702 1.386-.702 2.43 0 1.068.234 1.902.702 2.502.48.588 1.146.882 1.998.882zm6.823 1.08v-8.766h1.458V710h-1.458zm-.144-12.564h1.764v1.638h-1.764v-1.638zm8.737 3.582c.768 0 1.446.186 2.034.558.588.372 1.044.9 1.368 1.584.324.684.486 1.476.486 2.376 0 .912-.162 1.716-.486 2.412-.324.684-.78 1.218-1.368 1.602-.588.384-1.266.576-2.034.576-.684 0-1.284-.15-1.8-.45a2.909 2.909 0 01-1.152-1.278V710h-1.458v-12.69h1.458v5.436a2.909 2.909 0 011.152-1.278c.516-.3 1.116-.45 1.8-.45zm-.288 7.902c.852 0 1.512-.294 1.98-.882.468-.6.702-1.434.702-2.502 0-1.044-.234-1.854-.702-2.43-.468-.576-1.128-.864-1.98-.864-.852 0-1.512.288-1.98.864-.456.576-.684 1.398-.684 2.466 0 1.068.228 1.896.684 2.484.468.576 1.128.864 1.98.864zm13.735-7.686V710h-1.422v-1.494c-.276.528-.666.93-1.17 1.206-.492.276-1.05.414-1.674.414-1.044 0-1.83-.288-2.358-.864-.528-.588-.792-1.452-.792-2.592v-5.436h1.458v5.4c0 .78.156 1.356.468 1.728.312.36.804.54 1.476.54.768 0 1.386-.246 1.854-.738.468-.504.702-1.164.702-1.98v-4.95h1.458zm6.274-.216c1.116 0 1.944.288 2.484.864.552.564.828 1.428.828 2.592V710h-1.422v-1.494a2.627 2.627 0 01-1.044 1.206c-.468.276-1.008.414-1.62.414a3.603 3.603 0 01-1.566-.342 2.795 2.795 0 01-1.116-.954 2.358 2.358 0 01-.414-1.35c0-.66.168-1.17.504-1.53.336-.372.888-.636 1.656-.792.768-.168 1.836-.252 3.204-.252h.396v-.594c0-.732-.15-1.26-.45-1.584-.3-.336-.786-.504-1.458-.504-1.008 0-2.01.312-3.006.936l-.486-1.062c.456-.324 1.002-.582 1.638-.774a6.226 6.226 0 011.872-.306zm-.576 7.956c.72 0 1.308-.24 1.764-.72.468-.492.702-1.122.702-1.89v-.522h-.324c-1.056 0-1.86.048-2.412.144-.552.084-.948.234-1.188.45-.228.204-.342.51-.342.918 0 .468.168.858.504 1.17.348.3.78.45 1.296.45zm10.409-.018c.264 0 .528-.018.792-.054l-.072 1.152a5.261 5.261 0 01-.9.072c-1.056 0-1.854-.276-2.394-.828-.528-.552-.792-1.32-.792-2.304v-4.608h-1.71v-1.152h1.71v-2.664h1.458v2.664h2.484v1.152h-2.484v4.5c0 1.38.636 2.07 1.908 2.07zm14.681-11.646V710h-1.458v-1.602a2.877 2.877 0 01-1.17 1.278c-.504.3-1.098.45-1.782.45-.768 0-1.446-.192-2.034-.576-.588-.384-1.044-.918-1.368-1.602-.324-.696-.486-1.5-.486-2.412 0-.9.162-1.692.486-2.376.324-.684.78-1.212 1.368-1.584.588-.372 1.266-.558 2.034-.558.684 0 1.278.15 1.782.45.516.3.906.726 1.17 1.278v-5.436h1.458zm-4.122 11.61c.852 0 1.506-.288 1.962-.864.468-.588.702-1.416.702-2.484s-.234-1.89-.702-2.466c-.456-.576-1.11-.864-1.962-.864-.852 0-1.518.288-1.998.864-.468.576-.702 1.386-.702 2.43 0 1.068.234 1.902.702 2.502.48.588 1.146.882 1.998.882zm14.167-3.078h-6.408c.048 1.02.324 1.794.828 2.322.504.516 1.218.774 2.142.774 1.02 0 1.956-.348 2.808-1.044l.486 1.062c-.384.36-.876.648-1.476.864-.6.204-1.212.306-1.836.306-1.368 0-2.448-.402-3.24-1.206-.78-.804-1.17-1.914-1.17-3.33 0-.9.174-1.692.522-2.376a3.902 3.902 0 011.458-1.62c.636-.384 1.356-.576 2.16-.576 1.164 0 2.076.384 2.736 1.152.66.756.99 1.8.99 3.132v.54zm-3.708-3.69c-.768 0-1.386.24-1.854.72-.456.48-.726 1.158-.81 2.034h5.094c-.024-.888-.246-1.566-.666-2.034-.42-.48-1.008-.72-1.764-.72zm10.266-1.134c2.1 0 3.15 1.158 3.15 3.474V710h-1.458v-5.418c0-.816-.162-1.41-.486-1.782-.312-.372-.816-.558-1.512-.558-.804 0-1.446.246-1.926.738s-.72 1.158-.72 1.998V710h-1.458v-8.766h1.44v1.44c.288-.54.69-.948 1.206-1.224.516-.288 1.104-.432 1.764-.432zm13.669.216v8.172c0 1.308-.336 2.292-1.008 2.952-.672.672-1.668 1.008-2.988 1.008-1.536 0-2.826-.396-3.87-1.188l.486-1.08c.588.384 1.14.66 1.656.828a5.563 5.563 0 001.728.252c.84 0 1.476-.228 1.908-.684.432-.444.648-1.098.648-1.962v-1.548a2.733 2.733 0 01-1.17 1.296c-.516.3-1.128.45-1.836.45-.768 0-1.452-.18-2.052-.54-.588-.36-1.05-.87-1.386-1.53-.324-.66-.486-1.422-.486-2.286 0-.864.162-1.626.486-2.286.336-.66.798-1.17 1.386-1.53.6-.36 1.284-.54 2.052-.54.696 0 1.302.15 1.818.45.516.3.906.726 1.17 1.278v-1.512h1.458zm-4.158 7.29c.84 0 1.5-.276 1.98-.828.48-.564.72-1.338.72-2.322 0-.972-.24-1.734-.72-2.286-.468-.564-1.128-.846-1.98-.846-.852 0-1.524.282-2.016.846-.48.552-.72 1.314-.72 2.286 0 .984.24 1.758.72 2.322.492.552 1.164.828 2.016.828zm10.421-7.506c1.116 0 1.944.288 2.484.864.552.564.828 1.428.828 2.592V710h-1.422v-1.494a2.627 2.627 0 01-1.044 1.206c-.468.276-1.008.414-1.62.414a3.603 3.603 0 01-1.566-.342 2.795 2.795 0 01-1.116-.954 2.358 2.358 0 01-.414-1.35c0-.66.168-1.17.504-1.53.336-.372.888-.636 1.656-.792.768-.168 1.836-.252 3.204-.252h.396v-.594c0-.732-.15-1.26-.45-1.584-.3-.336-.786-.504-1.458-.504-1.008 0-2.01.312-3.006.936l-.486-1.062c.456-.324 1.002-.582 1.638-.774a6.226 6.226 0 011.872-.306zm-.576 7.956c.72 0 1.308-.24 1.764-.72.468-.492.702-1.122.702-1.89v-.522h-.324c-1.056 0-1.86.048-2.412.144-.552.084-.948.234-1.188.45-.228.204-.342.51-.342.918 0 .468.168.858.504 1.17.348.3.78.45 1.296.45zm10.966-7.956c2.1 0 3.15 1.158 3.15 3.474V710h-1.458v-5.418c0-.816-.162-1.41-.486-1.782-.312-.372-.816-.558-1.512-.558-.804 0-1.446.246-1.926.738s-.72 1.158-.72 1.998V710h-1.458v-8.766h1.44v1.44c.288-.54.69-.948 1.206-1.224.516-.288 1.104-.432 1.764-.432zm13.432 9.108c-1.476 0-2.646-.378-3.51-1.134l.486-1.08a4.9 4.9 0 001.422.81 5.466 5.466 0 001.656.234c.648 0 1.14-.108 1.476-.324.348-.228.522-.552.522-.972 0-.348-.114-.624-.342-.828-.228-.204-.606-.366-1.134-.486l-1.476-.342c-.744-.168-1.314-.456-1.71-.864-.396-.408-.594-.912-.594-1.512 0-.78.306-1.41.918-1.89.612-.48 1.428-.72 2.448-.72.612 0 1.194.102 1.746.306a3.596 3.596 0 011.386.846l-.486 1.062c-.804-.684-1.686-1.026-2.646-1.026-.612 0-1.092.12-1.44.36-.336.228-.504.552-.504.972 0 .348.102.63.306.846.216.204.558.36 1.026.468l1.494.36c.816.192 1.422.486 1.818.882.396.384.594.888.594 1.512 0 .768-.312 1.38-.936 1.836-.612.456-1.452.684-2.52.684zm9.242-9.108c1.116 0 1.944.288 2.484.864.552.564.828 1.428.828 2.592V710h-1.422v-1.494a2.627 2.627 0 01-1.044 1.206c-.468.276-1.008.414-1.62.414a3.603 3.603 0 01-1.566-.342 2.795 2.795 0 01-1.116-.954 2.358 2.358 0 01-.414-1.35c0-.66.168-1.17.504-1.53.336-.372.888-.636 1.656-.792.768-.168 1.836-.252 3.204-.252h.396v-.594c0-.732-.15-1.26-.45-1.584-.3-.336-.786-.504-1.458-.504-1.008 0-2.01.312-3.006.936l-.486-1.062c.456-.324 1.002-.582 1.638-.774a6.226 6.226 0 011.872-.306zm-.576 7.956c.72 0 1.308-.24 1.764-.72.468-.492.702-1.122.702-1.89v-.522h-.324c-1.056 0-1.86.048-2.412.144-.552.084-.948.234-1.188.45-.228.204-.342.51-.342.918 0 .468.168.858.504 1.17.348.3.78.45 1.296.45zm10.967-7.956c2.1 0 3.15 1.158 3.15 3.474V710h-1.458v-5.418c0-.816-.162-1.41-.486-1.782-.312-.372-.816-.558-1.512-.558-.804 0-1.446.246-1.926.738s-.72 1.158-.72 1.998V710h-1.458v-8.766h1.44v1.44c.288-.54.69-.948 1.206-1.224.516-.288 1.104-.432 1.764-.432zm13.668.216v8.172c0 1.308-.336 2.292-1.008 2.952-.672.672-1.668 1.008-2.988 1.008-1.536 0-2.826-.396-3.87-1.188l.486-1.08c.588.384 1.14.66 1.656.828a5.563 5.563 0 001.728.252c.84 0 1.476-.228 1.908-.684.432-.444.648-1.098.648-1.962v-1.548a2.733 2.733 0 01-1.17 1.296c-.516.3-1.128.45-1.836.45-.768 0-1.452-.18-2.052-.54-.588-.36-1.05-.87-1.386-1.53-.324-.66-.486-1.422-.486-2.286 0-.864.162-1.626.486-2.286.336-.66.798-1.17 1.386-1.53.6-.36 1.284-.54 2.052-.54.696 0 1.302.15 1.818.45.516.3.906.726 1.17 1.278v-1.512h1.458zm-4.158 7.29c.84 0 1.5-.276 1.98-.828.48-.564.72-1.338.72-2.322 0-.972-.24-1.734-.72-2.286-.468-.564-1.128-.846-1.98-.846-.852 0-1.524.282-2.016.846-.48.552-.72 1.314-.72 2.286 0 .984.24 1.758.72 2.322.492.552 1.164.828 2.016.828zm10.421-7.506c1.116 0 1.944.288 2.484.864.552.564.828 1.428.828 2.592V710h-1.422v-1.494a2.627 2.627 0 01-1.044 1.206c-.468.276-1.008.414-1.62.414a3.603 3.603 0 01-1.566-.342 2.795 2.795 0 01-1.116-.954 2.358 2.358 0 01-.414-1.35c0-.66.168-1.17.504-1.53.336-.372.888-.636 1.656-.792.768-.168 1.836-.252 3.204-.252h.396v-.594c0-.732-.15-1.26-.45-1.584-.3-.336-.786-.504-1.458-.504-1.008 0-2.01.312-3.006.936l-.486-1.062c.456-.324 1.002-.582 1.638-.774a6.226 6.226 0 011.872-.306zm-.576 7.956c.72 0 1.308-.24 1.764-.72.468-.492.702-1.122.702-1.89v-.522h-.324c-1.056 0-1.86.048-2.412.144-.552.084-.948.234-1.188.45-.228.204-.342.51-.342.918 0 .468.168.858.504 1.17.348.3.78.45 1.296.45zm10.409-.018c.264 0 .528-.018.792-.054l-.072 1.152a5.261 5.261 0 01-.9.072c-1.056 0-1.854-.276-2.394-.828-.528-.552-.792-1.32-.792-2.304v-4.608h-1.71v-1.152h1.71v-2.664h1.458v2.664h2.484v1.152h-2.484v4.5c0 1.38.636 2.07 1.908 2.07zm9.876 1.17c-1.476 0-2.646-.378-3.51-1.134l.486-1.08a4.9 4.9 0 001.422.81 5.466 5.466 0 001.656.234c.648 0 1.14-.108 1.476-.324.348-.228.522-.552.522-.972 0-.348-.114-.624-.342-.828-.228-.204-.606-.366-1.134-.486l-1.476-.342c-.744-.168-1.314-.456-1.71-.864-.396-.408-.594-.912-.594-1.512 0-.78.306-1.41.918-1.89.612-.48 1.428-.72 2.448-.72.612 0 1.194.102 1.746.306a3.596 3.596 0 011.386.846l-.486 1.062c-.804-.684-1.686-1.026-2.646-1.026-.612 0-1.092.12-1.44.36-.336.228-.504.552-.504.972 0 .348.102.63.306.846.216.204.558.36 1.026.468l1.494.36c.816.192 1.422.486 1.818.882.396.384.594.888.594 1.512 0 .768-.312 1.38-.936 1.836-.612.456-1.452.684-2.52.684zm9.443-1.17c.264 0 .528-.018.792-.054l-.072 1.152a5.261 5.261 0 01-.9.072c-1.056 0-1.854-.276-2.394-.828-.528-.552-.792-1.32-.792-2.304v-4.608h-1.71v-1.152h1.71v-2.664h1.458v2.664h2.484v1.152h-2.484v4.5c0 1.38.636 2.07 1.908 2.07zm5.829-7.938c1.116 0 1.944.288 2.484.864.552.564.828 1.428.828 2.592V710h-1.422v-1.494a2.627 2.627 0 01-1.044 1.206c-.468.276-1.008.414-1.62.414a3.603 3.603 0 01-1.566-.342 2.795 2.795 0 01-1.116-.954 2.358 2.358 0 01-.414-1.35c0-.66.168-1.17.504-1.53.336-.372.888-.636 1.656-.792.768-.168 1.836-.252 3.204-.252h.396v-.594c0-.732-.15-1.26-.45-1.584-.3-.336-.786-.504-1.458-.504-1.008 0-2.01.312-3.006.936l-.486-1.062c.456-.324 1.002-.582 1.638-.774a6.226 6.226 0 011.872-.306zm-.576 7.956c.72 0 1.308-.24 1.764-.72.468-.492.702-1.122.702-1.89v-.522h-.324c-1.056 0-1.86.048-2.412.144-.552.084-.948.234-1.188.45-.228.204-.342.51-.342.918 0 .468.168.858.504 1.17.348.3.78.45 1.296.45zm10.967-7.956c2.1 0 3.15 1.158 3.15 3.474V710h-1.458v-5.418c0-.816-.162-1.41-.486-1.782-.312-.372-.816-.558-1.512-.558-.804 0-1.446.246-1.926.738s-.72 1.158-.72 1.998V710h-1.458v-8.766h1.44v1.44c.288-.54.69-.948 1.206-1.224.516-.288 1.104-.432 1.764-.432zm13.596-3.708V710h-1.458v-1.602a2.877 2.877 0 01-1.17 1.278c-.504.3-1.098.45-1.782.45-.768 0-1.446-.192-2.034-.576-.588-.384-1.044-.918-1.368-1.602-.324-.696-.486-1.5-.486-2.412 0-.9.162-1.692.486-2.376.324-.684.78-1.212 1.368-1.584.588-.372 1.266-.558 2.034-.558.684 0 1.278.15 1.782.45.516.3.906.726 1.17 1.278v-5.436h1.458zm-4.122 11.61c.852 0 1.506-.288 1.962-.864.468-.588.702-1.416.702-2.484s-.234-1.89-.702-2.466c-.456-.576-1.11-.864-1.962-.864-.852 0-1.518.288-1.998.864-.468.576-.702 1.386-.702 2.43 0 1.068.234 1.902.702 2.502.48.588 1.146.882 1.998.882zm10.387-7.902c1.116 0 1.944.288 2.484.864.552.564.828 1.428.828 2.592V710h-1.422v-1.494a2.627 2.627 0 01-1.044 1.206c-.468.276-1.008.414-1.62.414a3.603 3.603 0 01-1.566-.342 2.795 2.795 0 01-1.116-.954 2.358 2.358 0 01-.414-1.35c0-.66.168-1.17.504-1.53.336-.372.888-.636 1.656-.792.768-.168 1.836-.252 3.204-.252h.396v-.594c0-.732-.15-1.26-.45-1.584-.3-.336-.786-.504-1.458-.504-1.008 0-2.01.312-3.006.936l-.486-1.062c.456-.324 1.002-.582 1.638-.774a6.226 6.226 0 011.872-.306zm-.576 7.956c.72 0 1.308-.24 1.764-.72.468-.492.702-1.122.702-1.89v-.522h-.324c-1.056 0-1.86.048-2.412.144-.552.084-.948.234-1.188.45-.228.204-.342.51-.342.918 0 .468.168.858.504 1.17.348.3.78.45 1.296.45zm11.525-6.696l-.954.09c-.9.084-1.554.366-1.962.846-.396.48-.594 1.074-.594 1.782V710H526.7v-8.766h1.422v1.53c.492-1.02 1.458-1.59 2.898-1.71l.522-.036.126 1.26zm5.932 6.678c.264 0 .528-.018.792-.054l-.072 1.152a5.261 5.261 0 01-.9.072c-1.056 0-1.854-.276-2.394-.828-.528-.552-.792-1.32-.792-2.304v-4.608h-1.71v-1.152h1.71v-2.664h1.458v2.664h2.484v1.152h-2.484v4.5c0 1.38.636 2.07 1.908 2.07zm14.682-11.646V710h-1.458v-1.602a2.877 2.877 0 01-1.17 1.278c-.504.3-1.098.45-1.782.45-.768 0-1.446-.192-2.034-.576-.588-.384-1.044-.918-1.368-1.602-.324-.696-.486-1.5-.486-2.412 0-.9.162-1.692.486-2.376.324-.684.78-1.212 1.368-1.584.588-.372 1.266-.558 2.034-.558.684 0 1.278.15 1.782.45.516.3.906.726 1.17 1.278v-5.436h1.458zm-4.122 11.61c.852 0 1.506-.288 1.962-.864.468-.588.702-1.416.702-2.484s-.234-1.89-.702-2.466c-.456-.576-1.11-.864-1.962-.864-.852 0-1.518.288-1.998.864-.468.576-.702 1.386-.702 2.43 0 1.068.234 1.902.702 2.502.48.588 1.146.882 1.998.882zm14.167-3.078h-6.408c.048 1.02.324 1.794.828 2.322.504.516 1.218.774 2.142.774 1.02 0 1.956-.348 2.808-1.044l.486 1.062c-.384.36-.876.648-1.476.864-.6.204-1.212.306-1.836.306-1.368 0-2.448-.402-3.24-1.206-.78-.804-1.17-1.914-1.17-3.33 0-.9.174-1.692.522-2.376a3.902 3.902 0 011.458-1.62c.636-.384 1.356-.576 2.16-.576 1.164 0 2.076.384 2.736 1.152.66.756.99 1.8.99 3.132v.54zm-3.708-3.69c-.768 0-1.386.24-1.854.72-.456.48-.726 1.158-.81 2.034h5.094c-.024-.888-.246-1.566-.666-2.034-.42-.48-1.008-.72-1.764-.72zm10.266-1.134c2.1 0 3.15 1.158 3.15 3.474V710h-1.458v-5.418c0-.816-.162-1.41-.486-1.782-.312-.372-.816-.558-1.512-.558-.804 0-1.446.246-1.926.738s-.72 1.158-.72 1.998V710h-1.458v-8.766h1.44v1.44c.288-.54.69-.948 1.206-1.224.516-.288 1.104-.432 1.764-.432zm13.668.216v8.172c0 1.308-.336 2.292-1.008 2.952-.672.672-1.668 1.008-2.988 1.008-1.536 0-2.826-.396-3.87-1.188l.486-1.08c.588.384 1.14.66 1.656.828a5.563 5.563 0 001.728.252c.84 0 1.476-.228 1.908-.684.432-.444.648-1.098.648-1.962v-1.548a2.733 2.733 0 01-1.17 1.296c-.516.3-1.128.45-1.836.45-.768 0-1.452-.18-2.052-.54-.588-.36-1.05-.87-1.386-1.53-.324-.66-.486-1.422-.486-2.286 0-.864.162-1.626.486-2.286.336-.66.798-1.17 1.386-1.53.6-.36 1.284-.54 2.052-.54.696 0 1.302.15 1.818.45.516.3.906.726 1.17 1.278v-1.512h1.458zm-4.158 7.29c.84 0 1.5-.276 1.98-.828.48-.564.72-1.338.72-2.322 0-.972-.24-1.734-.72-2.286-.468-.564-1.128-.846-1.98-.846-.852 0-1.524.282-2.016.846-.48.552-.72 1.314-.72 2.286 0 .984.24 1.758.72 2.322.492.552 1.164.828 2.016.828zm10.421-7.506c1.116 0 1.944.288 2.484.864.552.564.828 1.428.828 2.592V710h-1.422v-1.494a2.627 2.627 0 01-1.044 1.206c-.468.276-1.008.414-1.62.414a3.603 3.603 0 01-1.566-.342 2.795 2.795 0 01-1.116-.954 2.358 2.358 0 01-.414-1.35c0-.66.168-1.17.504-1.53.336-.372.888-.636 1.656-.792.768-.168 1.836-.252 3.204-.252h.396v-.594c0-.732-.15-1.26-.45-1.584-.3-.336-.786-.504-1.458-.504-1.008 0-2.01.312-3.006.936l-.486-1.062c.456-.324 1.002-.582 1.638-.774a6.226 6.226 0 011.872-.306zm-.576 7.956c.72 0 1.308-.24 1.764-.72.468-.492.702-1.122.702-1.89v-.522h-.324c-1.056 0-1.86.048-2.412.144-.552.084-.948.234-1.188.45-.228.204-.342.51-.342.918 0 .468.168.858.504 1.17.348.3.78.45 1.296.45zm10.967-7.956c2.1 0 3.15 1.158 3.15 3.474V710h-1.458v-5.418c0-.816-.162-1.41-.486-1.782-.312-.372-.816-.558-1.512-.558-.804 0-1.446.246-1.926.738s-.72 1.158-.72 1.998V710h-1.458v-8.766h1.44v1.44c.288-.54.69-.948 1.206-1.224.516-.288 1.104-.432 1.764-.432zm14.313 7.938c.264 0 .528-.018.792-.054l-.072 1.152a5.261 5.261 0 01-.9.072c-1.056 0-1.854-.276-2.394-.828-.528-.552-.792-1.32-.792-2.304v-4.608h-1.71v-1.152h1.71v-2.664h1.458v2.664h2.484v1.152h-2.484v4.5c0 1.38.636 2.07 1.908 2.07zm9.646-7.722V710h-1.422v-1.494c-.276.528-.666.93-1.17 1.206-.492.276-1.05.414-1.674.414-1.044 0-1.83-.288-2.358-.864-.528-.588-.792-1.452-.792-2.592v-5.436h1.458v5.4c0 .78.156 1.356.468 1.728.312.36.804.54 1.476.54.768 0 1.386-.246 1.854-.738.468-.504.702-1.164.702-1.98v-4.95h1.458zm4.167 8.676c0 1.08-.264 1.89-.792 2.43-.528.54-1.344.846-2.448.918l-.81.054-.108-1.134.81-.054c1.26-.084 1.89-.756 1.89-2.016v-8.874h1.458v8.676zm-1.602-12.474h1.764v1.638h-1.764v-1.638zm11.708 3.798V710h-1.422v-1.494c-.276.528-.666.93-1.17 1.206-.492.276-1.05.414-1.674.414-1.044 0-1.83-.288-2.358-.864-.528-.588-.792-1.452-.792-2.592v-5.436h1.458v5.4c0 .78.156 1.356.468 1.728.312.36.804.54 1.476.54.768 0 1.386-.246 1.854-.738.468-.504.702-1.164.702-1.98v-4.95h1.458zm6.274-.216c1.116 0 1.944.288 2.484.864.552.564.828 1.428.828 2.592V710h-1.422v-1.494a2.627 2.627 0 01-1.044 1.206c-.468.276-1.008.414-1.62.414a3.603 3.603 0 01-1.566-.342 2.795 2.795 0 01-1.116-.954 2.358 2.358 0 01-.414-1.35c0-.66.168-1.17.504-1.53.336-.372.888-.636 1.656-.792.768-.168 1.836-.252 3.204-.252h.396v-.594c0-.732-.15-1.26-.45-1.584-.3-.336-.786-.504-1.458-.504-1.008 0-2.01.312-3.006.936l-.486-1.062c.456-.324 1.002-.582 1.638-.774a6.226 6.226 0 011.872-.306zm-.576 7.956c.72 0 1.308-.24 1.764-.72.468-.492.702-1.122.702-1.89v-.522h-.324c-1.056 0-1.86.048-2.412.144-.552.084-.948.234-1.188.45-.228.204-.342.51-.342.918 0 .468.168.858.504 1.17.348.3.78.45 1.296.45zm10.967-7.956c2.1 0 3.15 1.158 3.15 3.474V710h-1.458v-5.418c0-.816-.162-1.41-.486-1.782-.312-.372-.816-.558-1.512-.558-.804 0-1.446.246-1.926.738s-.72 1.158-.72 1.998V710h-1.458v-8.766h1.44v1.44c.288-.54.69-.948 1.206-1.224.516-.288 1.104-.432 1.764-.432zm14.025 0c1.116 0 1.944.288 2.484.864.552.564.828 1.428.828 2.592V710h-1.422v-1.494a2.627 2.627 0 01-1.044 1.206c-.468.276-1.008.414-1.62.414a3.603 3.603 0 01-1.566-.342 2.795 2.795 0 01-1.116-.954 2.358 2.358 0 01-.414-1.35c0-.66.168-1.17.504-1.53.336-.372.888-.636 1.656-.792.768-.168 1.836-.252 3.204-.252h.396v-.594c0-.732-.15-1.26-.45-1.584-.3-.336-.786-.504-1.458-.504-1.008 0-2.01.312-3.006.936l-.486-1.062c.456-.324 1.002-.582 1.638-.774a6.226 6.226 0 011.872-.306zm-.576 7.956c.72 0 1.308-.24 1.764-.72.468-.492.702-1.122.702-1.89v-.522h-.324c-1.056 0-1.86.048-2.412.144-.552.084-.948.234-1.188.45-.228.204-.342.51-.342.918 0 .468.168.858.504 1.17.348.3.78.45 1.296.45zm14.405-7.74v8.172c0 1.308-.336 2.292-1.008 2.952-.672.672-1.668 1.008-2.988 1.008-1.536 0-2.826-.396-3.87-1.188l.486-1.08c.588.384 1.14.66 1.656.828a5.563 5.563 0 001.728.252c.84 0 1.476-.228 1.908-.684.432-.444.648-1.098.648-1.962v-1.548a2.733 2.733 0 01-1.17 1.296c-.516.3-1.128.45-1.836.45-.768 0-1.452-.18-2.052-.54-.588-.36-1.05-.87-1.386-1.53-.324-.66-.486-1.422-.486-2.286 0-.864.162-1.626.486-2.286.336-.66.798-1.17 1.386-1.53.6-.36 1.284-.54 2.052-.54.696 0 1.302.15 1.818.45.516.3.906.726 1.17 1.278v-1.512h1.458zm-4.158 7.29c.84 0 1.5-.276 1.98-.828.48-.564.72-1.338.72-2.322 0-.972-.24-1.734-.72-2.286-.468-.564-1.128-.846-1.98-.846-.852 0-1.524.282-2.016.846-.48.552-.72 1.314-.72 2.286 0 .984.24 1.758.72 2.322.492.552 1.164.828 2.016.828zm10.421-7.506c1.116 0 1.944.288 2.484.864.552.564.828 1.428.828 2.592V710h-1.422v-1.494a2.627 2.627 0 01-1.044 1.206c-.468.276-1.008.414-1.62.414a3.603 3.603 0 01-1.566-.342 2.795 2.795 0 01-1.116-.954 2.358 2.358 0 01-.414-1.35c0-.66.168-1.17.504-1.53.336-.372.888-.636 1.656-.792.768-.168 1.836-.252 3.204-.252h.396v-.594c0-.732-.15-1.26-.45-1.584-.3-.336-.786-.504-1.458-.504-1.008 0-2.01.312-3.006.936l-.486-1.062c.456-.324 1.002-.582 1.638-.774a6.226 6.226 0 011.872-.306zm-.576 7.956c.72 0 1.308-.24 1.764-.72.468-.492.702-1.122.702-1.89v-.522h-.324c-1.056 0-1.86.048-2.412.144-.552.084-.948.234-1.188.45-.228.204-.342.51-.342.918 0 .468.168.858.504 1.17.348.3.78.45 1.296.45zm11.525-6.696l-.954.09c-.9.084-1.554.366-1.962.846-.396.48-.594 1.074-.594 1.782V710h-1.458v-8.766h1.422v1.53c.492-1.02 1.458-1.59 2.898-1.71l.522-.036.126 1.26zm-369.925 23.74c1.944 0 2.916 1.158 2.916 3.474V735h-1.458v-5.436c0-.804-.144-1.392-.432-1.764-.276-.372-.726-.558-1.35-.558-.732 0-1.308.246-1.728.738-.42.492-.63 1.164-.63 2.016V735h-1.458v-5.436c0-.816-.144-1.404-.432-1.764-.288-.372-.744-.558-1.368-.558-.732 0-1.308.246-1.728.738-.42.492-.63 1.164-.63 2.016V735h-1.458v-8.766h1.44v1.386c.264-.516.63-.912 1.098-1.188.468-.276 1.008-.414 1.62-.414 1.356 0 2.25.576 2.682 1.728a2.79 2.79 0 011.152-1.26c.516-.312 1.104-.468 1.764-.468zm12.952.216V735h-1.422v-1.494c-.276.528-.666.93-1.17 1.206-.492.276-1.05.414-1.674.414-1.044 0-1.83-.288-2.358-.864-.528-.588-.792-1.452-.792-2.592v-5.436h1.458v5.4c0 .78.156 1.356.468 1.728.312.36.804.54 1.476.54.768 0 1.386-.246 1.854-.738.468-.504.702-1.164.702-1.98v-4.95h1.458zm10.486-3.924V735h-1.458v-1.602a2.877 2.877 0 01-1.17 1.278c-.504.3-1.098.45-1.782.45-.768 0-1.446-.192-2.034-.576-.588-.384-1.044-.918-1.368-1.602-.324-.696-.486-1.5-.486-2.412 0-.9.162-1.692.486-2.376.324-.684.78-1.212 1.368-1.584.588-.372 1.266-.558 2.034-.558.684 0 1.278.15 1.782.45.516.3.906.726 1.17 1.278v-5.436h1.458zm-4.122 11.61c.852 0 1.506-.288 1.962-.864.468-.588.702-1.416.702-2.484s-.234-1.89-.702-2.466c-.456-.576-1.11-.864-1.962-.864-.852 0-1.518.288-1.998.864-.468.576-.702 1.386-.702 2.43 0 1.068.234 1.902.702 2.502.48.588 1.146.882 1.998.882zm10.386-7.902c1.116 0 1.944.288 2.484.864.552.564.828 1.428.828 2.592V735h-1.422v-1.494a2.627 2.627 0 01-1.044 1.206c-.468.276-1.008.414-1.62.414a3.603 3.603 0 01-1.566-.342 2.795 2.795 0 01-1.116-.954 2.358 2.358 0 01-.414-1.35c0-.66.168-1.17.504-1.53.336-.372.888-.636 1.656-.792.768-.168 1.836-.252 3.204-.252h.396v-.594c0-.732-.15-1.26-.45-1.584-.3-.336-.786-.504-1.458-.504-1.008 0-2.01.312-3.006.936l-.486-1.062c.456-.324 1.002-.582 1.638-.774a6.226 6.226 0 011.872-.306zm-.576 7.956c.72 0 1.308-.24 1.764-.72.468-.492.702-1.122.702-1.89v-.522h-.324c-1.056 0-1.86.048-2.412.144-.552.084-.948.234-1.188.45-.228.204-.342.51-.342.918 0 .468.168.858.504 1.17.348.3.78.45 1.296.45zm10.967-7.956c2.1 0 3.15 1.158 3.15 3.474V735h-1.458v-5.418c0-.816-.162-1.41-.486-1.782-.312-.372-.816-.558-1.512-.558-.804 0-1.446.246-1.926.738s-.72 1.158-.72 1.998V735h-1.458v-12.69h1.458v5.328a2.95 2.95 0 011.188-1.206c.516-.276 1.104-.414 1.764-.414zm18.237-3.708V735h-1.458v-1.602a2.877 2.877 0 01-1.17 1.278c-.504.3-1.098.45-1.782.45-.768 0-1.446-.192-2.034-.576-.588-.384-1.044-.918-1.368-1.602-.324-.696-.486-1.5-.486-2.412 0-.9.162-1.692.486-2.376.324-.684.78-1.212 1.368-1.584.588-.372 1.266-.558 2.034-.558.684 0 1.278.15 1.782.45.516.3.906.726 1.17 1.278v-5.436h1.458zm-4.122 11.61c.852 0 1.506-.288 1.962-.864.468-.588.702-1.416.702-2.484s-.234-1.89-.702-2.466c-.456-.576-1.11-.864-1.962-.864-.852 0-1.518.288-1.998.864-.468.576-.702 1.386-.702 2.43 0 1.068.234 1.902.702 2.502.48.588 1.146.882 1.998.882zm6.823 1.08v-8.766h1.458V735h-1.458zm-.144-12.564h1.764v1.638h-1.764v-1.638zm8.737 3.582c.768 0 1.446.192 2.034.576.588.384 1.044.924 1.368 1.62.324.684.486 1.482.486 2.394 0 .912-.162 1.71-.486 2.394-.324.672-.78 1.194-1.368 1.566-.576.372-1.254.558-2.034.558-.684 0-1.284-.15-1.8-.45a2.909 2.909 0 01-1.152-1.278v4.842h-1.458v-12.006h1.458v1.512a2.909 2.909 0 011.152-1.278c.516-.3 1.116-.45 1.8-.45zm-.288 7.902c.852 0 1.512-.288 1.98-.864.468-.576.702-1.392.702-2.448s-.234-1.878-.702-2.466c-.468-.6-1.128-.9-1.98-.9-.852 0-1.512.288-1.98.864-.456.576-.684 1.398-.684 2.466 0 1.068.228 1.896.684 2.484.468.576 1.128.864 1.98.864zm9.919-7.902c1.116 0 1.944.288 2.484.864.552.564.828 1.428.828 2.592V735h-1.422v-1.494a2.627 2.627 0 01-1.044 1.206c-.468.276-1.008.414-1.62.414a3.603 3.603 0 01-1.566-.342 2.795 2.795 0 01-1.116-.954 2.358 2.358 0 01-.414-1.35c0-.66.168-1.17.504-1.53.336-.372.888-.636 1.656-.792.768-.168 1.836-.252 3.204-.252h.396v-.594c0-.732-.15-1.26-.45-1.584-.3-.336-.786-.504-1.458-.504-1.008 0-2.01.312-3.006.936l-.486-1.062c.456-.324 1.002-.582 1.638-.774a6.226 6.226 0 011.872-.306zm-.576 7.956c.72 0 1.308-.24 1.764-.72.468-.492.702-1.122.702-1.89v-.522h-.324c-1.056 0-1.86.048-2.412.144-.552.084-.948.234-1.188.45-.228.204-.342.51-.342.918 0 .468.168.858.504 1.17.348.3.78.45 1.296.45zm10.967-7.956c2.1 0 3.15 1.158 3.15 3.474V735h-1.458v-5.418c0-.816-.162-1.41-.486-1.782-.312-.372-.816-.558-1.512-.558-.804 0-1.446.246-1.926.738s-.72 1.158-.72 1.998V735h-1.458v-12.69h1.458v5.328a2.95 2.95 0 011.188-1.206c.516-.276 1.104-.414 1.764-.414zm9.384 0c1.116 0 1.944.288 2.484.864.552.564.828 1.428.828 2.592V735h-1.422v-1.494a2.627 2.627 0 01-1.044 1.206c-.468.276-1.008.414-1.62.414a3.603 3.603 0 01-1.566-.342 2.795 2.795 0 01-1.116-.954 2.358 2.358 0 01-.414-1.35c0-.66.168-1.17.504-1.53.336-.372.888-.636 1.656-.792.768-.168 1.836-.252 3.204-.252h.396v-.594c0-.732-.15-1.26-.45-1.584-.3-.336-.786-.504-1.458-.504-1.008 0-2.01.312-3.006.936l-.486-1.062c.456-.324 1.002-.582 1.638-.774a6.226 6.226 0 011.872-.306zm-.576 7.956c.72 0 1.308-.24 1.764-.72.468-.492.702-1.122.702-1.89v-.522h-.324c-1.056 0-1.86.048-2.412.144-.552.084-.948.234-1.188.45-.228.204-.342.51-.342.918 0 .468.168.858.504 1.17.348.3.78.45 1.296.45zm16.313-7.956c1.944 0 2.916 1.158 2.916 3.474V735h-1.458v-5.436c0-.804-.144-1.392-.432-1.764-.276-.372-.726-.558-1.35-.558-.732 0-1.308.246-1.728.738-.42.492-.63 1.164-.63 2.016V735h-1.458v-5.436c0-.816-.144-1.404-.432-1.764-.288-.372-.744-.558-1.368-.558-.732 0-1.308.246-1.728.738-.42.492-.63 1.164-.63 2.016V735h-1.458v-8.766h1.44v1.386c.264-.516.63-.912 1.098-1.188.468-.276 1.008-.414 1.62-.414 1.356 0 2.25.576 2.682 1.728a2.79 2.79 0 011.152-1.26c.516-.312 1.104-.468 1.764-.468zm5.572 8.982v-8.766h1.458V735h-1.458zm-.144-12.564h1.764v1.638h-1.764v-1.638zm12.605 12.69c-.828 0-1.56-.186-2.196-.558a3.805 3.805 0 01-1.458-1.584c-.336-.696-.504-1.5-.504-2.412 0-.912.168-1.71.504-2.394.348-.696.834-1.23 1.458-1.602.636-.372 1.368-.558 2.196-.558.828 0 1.56.186 2.196.558a3.637 3.637 0 011.458 1.602c.348.684.522 1.482.522 2.394 0 .912-.174 1.716-.522 2.412a3.657 3.657 0 01-1.458 1.584c-.636.372-1.368.558-2.196.558zm0-1.206c.864 0 1.524-.282 1.98-.846.468-.576.702-1.41.702-2.502 0-1.068-.234-1.89-.702-2.466-.468-.588-1.128-.882-1.98-.882-.852 0-1.512.294-1.98.882-.468.576-.702 1.398-.702 2.466 0 1.08.228 1.908.684 2.484.468.576 1.134.864 1.998.864zm6.348 1.08v-12.69h1.458V735h-1.458zm11.528-4.158h-6.408c.048 1.02.324 1.794.828 2.322.504.516 1.218.774 2.142.774 1.02 0 1.956-.348 2.808-1.044l.486 1.062c-.384.36-.876.648-1.476.864-.6.204-1.212.306-1.836.306-1.368 0-2.448-.402-3.24-1.206-.78-.804-1.17-1.914-1.17-3.33 0-.9.174-1.692.522-2.376a3.902 3.902 0 011.458-1.62c.636-.384 1.356-.576 2.16-.576 1.164 0 2.076.384 2.736 1.152.66.756.99 1.8.99 3.132v.54zm-3.708-3.69c-.768 0-1.386.24-1.854.72-.456.48-.726 1.158-.81 2.034h5.094c-.024-.888-.246-1.566-.666-2.034-.42-.48-1.008-.72-1.764-.72zm10.266-1.134c2.1 0 3.15 1.158 3.15 3.474V735h-1.458v-5.418c0-.816-.162-1.41-.486-1.782-.312-.372-.816-.558-1.512-.558-.804 0-1.446.246-1.926.738s-.72 1.158-.72 1.998V735h-1.458v-12.69h1.458v5.328a2.95 2.95 0 011.188-1.206c.516-.276 1.104-.414 1.764-.414zm14.871 0c.768 0 1.446.192 2.034.576.588.384 1.044.924 1.368 1.62.324.684.486 1.482.486 2.394 0 .912-.162 1.71-.486 2.394-.324.672-.78 1.194-1.368 1.566-.576.372-1.254.558-2.034.558-.684 0-1.284-.15-1.8-.45a2.909 2.909 0 01-1.152-1.278v4.842h-1.458v-12.006h1.458v1.512a2.909 2.909 0 011.152-1.278c.516-.3 1.116-.45 1.8-.45zm-.288 7.902c.852 0 1.512-.288 1.98-.864.468-.576.702-1.392.702-2.448s-.234-1.878-.702-2.466c-.468-.6-1.128-.9-1.98-.9-.852 0-1.512.288-1.98.864-.456.576-.684 1.398-.684 2.466 0 1.068.228 1.896.684 2.484.468.576 1.128.864 1.98.864zm13.698-3.078h-6.408c.048 1.02.324 1.794.828 2.322.504.516 1.218.774 2.142.774 1.02 0 1.956-.348 2.808-1.044l.486 1.062c-.384.36-.876.648-1.476.864-.6.204-1.212.306-1.836.306-1.368 0-2.448-.402-3.24-1.206-.78-.804-1.17-1.914-1.17-3.33 0-.9.174-1.692.522-2.376a3.902 3.902 0 011.458-1.62c.636-.384 1.356-.576 2.16-.576 1.164 0 2.076.384 2.736 1.152.66.756.99 1.8.99 3.132v.54zm-3.708-3.69c-.768 0-1.386.24-1.854.72-.456.48-.726 1.158-.81 2.034h5.094c-.024-.888-.246-1.566-.666-2.034-.42-.48-1.008-.72-1.764-.72zm10.267-1.134c2.1 0 3.15 1.158 3.15 3.474V735h-1.458v-5.418c0-.816-.162-1.41-.486-1.782-.312-.372-.816-.558-1.512-.558-.804 0-1.446.246-1.926.738s-.72 1.158-.72 1.998V735h-1.458v-8.766h1.44v1.44c.288-.54.69-.948 1.206-1.224.516-.288 1.104-.432 1.764-.432zm13.668.216v8.172c0 1.308-.336 2.292-1.008 2.952-.672.672-1.668 1.008-2.988 1.008-1.536 0-2.826-.396-3.87-1.188l.486-1.08c.588.384 1.14.66 1.656.828a5.563 5.563 0 001.728.252c.84 0 1.476-.228 1.908-.684.432-.444.648-1.098.648-1.962v-1.548a2.733 2.733 0 01-1.17 1.296c-.516.3-1.128.45-1.836.45-.768 0-1.452-.18-2.052-.54-.588-.36-1.05-.87-1.386-1.53-.324-.66-.486-1.422-.486-2.286 0-.864.162-1.626.486-2.286.336-.66.798-1.17 1.386-1.53.6-.36 1.284-.54 2.052-.54.696 0 1.302.15 1.818.45.516.3.906.726 1.17 1.278v-1.512h1.458zm-4.158 7.29c.84 0 1.5-.276 1.98-.828.48-.564.72-1.338.72-2.322 0-.972-.24-1.734-.72-2.286-.468-.564-1.128-.846-1.98-.846-.852 0-1.524.282-2.016.846-.48.552-.72 1.314-.72 2.286 0 .984.24 1.758.72 2.322.492.552 1.164.828 2.016.828zm14.705-7.29v8.172c0 1.308-.336 2.292-1.008 2.952-.672.672-1.668 1.008-2.988 1.008-1.536 0-2.826-.396-3.87-1.188l.486-1.08c.588.384 1.14.66 1.656.828a5.563 5.563 0 001.728.252c.84 0 1.476-.228 1.908-.684.432-.444.648-1.098.648-1.962v-1.548a2.733 2.733 0 01-1.17 1.296c-.516.3-1.128.45-1.836.45-.768 0-1.452-.18-2.052-.54-.588-.36-1.05-.87-1.386-1.53-.324-.66-.486-1.422-.486-2.286 0-.864.162-1.626.486-2.286.336-.66.798-1.17 1.386-1.53.6-.36 1.284-.54 2.052-.54.696 0 1.302.15 1.818.45.516.3.906.726 1.17 1.278v-1.512h1.458zm-4.158 7.29c.84 0 1.5-.276 1.98-.828.48-.564.72-1.338.72-2.322 0-.972-.24-1.734-.72-2.286-.468-.564-1.128-.846-1.98-.846-.852 0-1.524.282-2.016.846-.48.552-.72 1.314-.72 2.286 0 .984.24 1.758.72 2.322.492.552 1.164.828 2.016.828zm14.237-7.29V735h-1.422v-1.494c-.276.528-.666.93-1.17 1.206-.492.276-1.05.414-1.674.414-1.044 0-1.83-.288-2.358-.864-.528-.588-.792-1.452-.792-2.592v-5.436h1.458v5.4c0 .78.156 1.356.468 1.728.312.36.804.54 1.476.54.768 0 1.386-.246 1.854-.738.468-.504.702-1.164.702-1.98v-4.95h1.458zm7.12-.216c2.1 0 3.15 1.158 3.15 3.474V735h-1.458v-5.418c0-.816-.162-1.41-.486-1.782-.312-.372-.816-.558-1.512-.558-.804 0-1.446.246-1.926.738s-.72 1.158-.72 1.998V735h-1.458v-8.766h1.44v1.44c.288-.54.69-.948 1.206-1.224.516-.288 1.104-.432 1.764-.432zm9.384 0c1.116 0 1.944.288 2.484.864.552.564.828 1.428.828 2.592V735h-1.422v-1.494a2.627 2.627 0 01-1.044 1.206c-.468.276-1.008.414-1.62.414a3.603 3.603 0 01-1.566-.342 2.795 2.795 0 01-1.116-.954 2.358 2.358 0 01-.414-1.35c0-.66.168-1.17.504-1.53.336-.372.888-.636 1.656-.792.768-.168 1.836-.252 3.204-.252h.396v-.594c0-.732-.15-1.26-.45-1.584-.3-.336-.786-.504-1.458-.504-1.008 0-2.01.312-3.006.936l-.486-1.062c.456-.324 1.002-.582 1.638-.774a6.226 6.226 0 011.872-.306zm-.576 7.956c.72 0 1.308-.24 1.764-.72.468-.492.702-1.122.702-1.89v-.522h-.324c-1.056 0-1.86.048-2.412.144-.552.084-.948.234-1.188.45-.228.204-.342.51-.342.918 0 .468.168.858.504 1.17.348.3.78.45 1.296.45zm6.341-.81h1.836V735h-1.836v-1.836z" fill="#fff"/><g clip-path="url(#clip0)"><path d="M660.724 160.695h-179.36V157h-81.328v3.695h-180.1a12.123 12.123 0 00-8.578 3.551 12.11 12.11 0 00-3.554 8.574v245.454c0 3.216 1.278 6.3 3.554 8.574a12.134 12.134 0 008.578 3.551h440.788a12.147 12.147 0 008.579-3.551 12.126 12.126 0 003.554-8.574V172.82a12.11 12.11 0 00-3.554-8.574 12.129 12.129 0 00-8.579-3.551z" fill="#448F6E"/><path d="M656.591 182.123H224.07v243.843h432.521V182.123zM439.961 175.473a4.435 4.435 0 100-8.867 4.435 4.435 0 100 8.867z" fill="#8BBEA8"/><path d="M631.761 213.157h-20.503v-20.49h20.503v20.49zm-19.611-.891h18.719v-18.708H612.15v18.708zM685.001 421.532H642.79v-3.039a.606.606 0 00-.373-.557.587.587 0 00-.23-.046h-14.473a.595.595 0 00-.426.176.602.602 0 00-.177.427v3.039h-9.045v-3.039a.606.606 0 00-.372-.557.595.595 0 00-.231-.046H602.99a.587.587 0 00-.23.046.59.59 0 00-.327.326.606.606 0 00-.046.231v3.039h-9.045v-3.039a.606.606 0 00-.372-.557.592.592 0 00-.231-.046h-14.472a.6.6 0 00-.603.603v3.039h-9.046v-3.039a.6.6 0 00-.603-.603h-14.472a.592.592 0 00-.426.176.602.602 0 00-.177.427v3.039h-9.045v-3.039a.606.606 0 00-.373-.557.587.587 0 00-.23-.046h-14.473a.595.595 0 00-.426.176.602.602 0 00-.177.427v3.039h-9.045v-3.039a.606.606 0 00-.372-.557.592.592 0 00-.231-.046h-14.472a.6.6 0 00-.604.603v3.039h-9.045v-3.039a.6.6 0 00-.603-.603H380.477a.592.592 0 00-.426.176.602.602 0 00-.177.427v3.039h-9.045v-3.039a.606.606 0 00-.373-.557.587.587 0 00-.23-.046h-14.473a.595.595 0 00-.426.176.602.602 0 00-.177.427v3.039h-9.045v-3.039a.606.606 0 00-.372-.557.595.595 0 00-.231-.046h-14.473a.6.6 0 00-.603.603v3.039h-9.045v-3.039a.6.6 0 00-.603-.603h-14.472a.6.6 0 00-.603.603v3.039h-9.046v-3.039a.605.605 0 00-.176-.427.6.6 0 00-.427-.176h-14.472a.592.592 0 00-.426.176.602.602 0 00-.177.427v3.039h-9.045v-3.039a.606.606 0 00-.373-.557.587.587 0 00-.23-.046h-14.473a.587.587 0 00-.23.046.59.59 0 00-.327.326.606.606 0 00-.046.231v3.039h-9.045v-3.039a.606.606 0 00-.372-.557.592.592 0 00-.231-.046h-14.472a.6.6 0 00-.603.603v3.039h-27.739c-3.839 0-7.52 1.524-10.234 4.236a14.462 14.462 0 00-4.239 10.228v6.54c0 3.836 1.525 7.515 4.239 10.228A14.478 14.478 0 00203.793 457h481.208c3.838 0 7.519-1.524 10.233-4.236a14.462 14.462 0 004.239-10.228v-6.54c0-3.836-1.525-7.515-4.239-10.228a14.478 14.478 0 00-10.233-4.236z" fill="#448F6E"/><path d="M759 442.161H129.793v1.919H759v-1.919zM629.854 317.997H490.596v-79.234h139.258v79.234zm-137.879-1.378h136.5v-76.478h-136.5v76.478zM374.777 333.843H250.686v-77.166h124.091v77.166zm-122.712-1.378h121.334v-74.41H252.065v74.41z" fill="#448F6E"/><path d="M308.66 304.217l-.118-1.541c-.356-3.199.711-6.695 3.675-10.25 2.668-3.141 4.151-5.451 4.151-8.118 0-3.022-1.898-5.036-5.633-5.095a10.537 10.537 0 00-5.988 1.837l-1.423-3.733c1.957-1.423 5.336-2.371 8.478-2.371 6.819 0 9.901 4.208 9.901 8.71 0 4.03-2.253 6.933-5.098 10.31-2.609 3.081-3.558 5.688-3.38 8.71l.059 1.541h-4.624zm-1.304 8.295a3.498 3.498 0 01.959-2.646 3.516 3.516 0 012.598-1.087c2.075 0 3.498 1.541 3.498 3.733a3.529 3.529 0 01-6.829 1.395 3.512 3.512 0 01-.226-1.395zM556.153 286.992l-.118-1.541c-.356-3.199.711-6.695 3.675-10.25 2.668-3.141 4.151-5.451 4.151-8.118 0-3.021-1.898-5.036-5.633-5.095a10.537 10.537 0 00-5.988 1.837l-1.423-3.733c1.957-1.422 5.336-2.371 8.478-2.371 6.819 0 9.901 4.208 9.901 8.71 0 4.03-2.253 6.933-5.098 10.31-2.609 3.081-3.557 5.689-3.38 8.71l.059 1.541h-4.624zm-1.304 8.296a3.5 3.5 0 012.144-3.462c.447-.187.928-.28 1.413-.271 2.075 0 3.498 1.54 3.498 3.733a3.527 3.527 0 01-4.912 3.391 3.523 3.523 0 01-2.143-3.391z" fill="#ECECEC"/><path d="M442.767 396.176c32.855 0 59.489-26.618 59.489-59.454s-26.634-59.454-59.489-59.454c-32.856 0-59.49 26.618-59.49 59.454s26.634 59.454 59.49 59.454z" fill="#3AABA4"/><path d="M419.79 418.139l-17.784-3.217 5.768-37.112 17.784 3.218-5.768 37.111zM461.126 387.462l-17.784-3.217-5.768 31.844 17.783 3.217 5.769-31.844z" fill="#3AABA4"/><path d="M467.244 421.041c.617-3.056-5.492-6.866-13.645-8.511-8.154-1.645-15.264-.502-15.881 2.554-.617 3.056 5.492 6.866 13.645 8.511 8.154 1.645 15.264.502 15.881-2.554zM430.204 420.081c.409-3.09-5.943-6.48-14.189-7.572-8.246-1.092-15.262.528-15.672 3.619-.409 3.09 5.943 6.48 14.189 7.572 8.245 1.092 15.262-.529 15.672-3.619z" fill="#3AABA4"/><path d="M428.332 342.499c11.229 0 20.332-9.098 20.332-20.32s-9.103-20.32-20.332-20.32c-11.229 0-20.332 9.098-20.332 20.32s9.103 20.32 20.332 20.32z" fill="#fff"/><path d="M499.783 334.987c16.013-3.668 28.059-10.714 26.907-15.738-1.152-5.024-15.067-6.123-31.079-2.455-16.013 3.668-28.059 10.714-26.907 15.738 1.152 5.024 15.067 6.123 31.079 2.455z" fill="#3AABA4"/><path d="M470.332 342.499c11.229 0 20.332-9.098 20.332-20.32s-9.103-20.32-20.332-20.32c-11.229 0-20.332 9.098-20.332 20.32s9.103 20.32 20.332 20.32z" fill="#fff"/><path d="M434.777 322.547a6.776 6.776 0 006.778-6.774 6.776 6.776 0 00-6.778-6.773 6.775 6.775 0 100 13.547zM478.688 321.669a6.776 6.776 0 006.778-6.773 6.776 6.776 0 00-6.778-6.774 6.776 6.776 0 00-6.777 6.774 6.775 6.775 0 006.777 6.773z" fill="#448F6E"/><path d="M395.801 278.335c-.894-22.01 18.087-40.654 42.396-41.641 24.31-.987 44.742 16.057 45.636 38.068.895 22.011-18.524 5.971-42.833 6.958-24.309.987-44.304 18.626-45.199-3.385z" fill="#6E7671"/><path d="M383.008 354.395c16.012-3.668 28.058-10.714 26.906-15.738-1.152-5.024-15.067-6.123-31.079-2.455s-28.059 10.715-26.907 15.738c1.153 5.024 15.067 6.123 31.08 2.455z" fill="#3AABA4"/><path d="M426.428 360.152a13.547 13.547 0 002.199 10.133 13.55 13.55 0 0014.012 5.519 13.541 13.541 0 004.85-2.107 13.534 13.534 0 005.614-8.718c1.334-7.362-4.362-9.967-11.728-11.3-7.366-1.333-13.614-.889-14.947 6.473z" fill="#fff"/><path d="M314.352 166.041h-97.816v92.991h97.816v-92.991z" fill="#ECECEC"/><path d="M303.236 177.15h-75.585v57.767h75.585V177.15z" fill="#fff"/><path d="M268.69 241.732h-41.114v2.162h41.114v-2.162zM268.69 248.219h-41.114v2.163h41.114v-2.163z" fill="#F2F2F2"/><path d="M241.1 214.699c4.781 0 8.656-3.873 8.656-8.65 0-4.778-3.875-8.65-8.656-8.65-4.78 0-8.655 3.872-8.655 8.65 0 4.777 3.875 8.65 8.655 8.65z" fill="#448F6E"/><path d="M265.444 214.699c4.78 0 8.655-3.873 8.655-8.65 0-4.778-3.875-8.65-8.655-8.65-4.781 0-8.656 3.872-8.656 8.65 0 4.777 3.875 8.65 8.656 8.65z" fill="#8BBEA8"/><path d="M289.787 214.699c4.78 0 8.656-3.873 8.656-8.65 0-4.778-3.876-8.65-8.656-8.65-4.78 0-8.655 3.872-8.655 8.65 0 4.777 3.875 8.65 8.655 8.65z" fill="#E6E6E6"/><path d="M265.444 175.773a4.327 4.327 0 004.328-4.325 4.327 4.327 0 00-4.328-4.326 4.327 4.327 0 00-4.328 4.326 4.327 4.327 0 004.328 4.325z" fill="#448F6E"/><path d="M360.877 346.099h-97.816v92.991h97.816v-92.991z" fill="#ECECEC"/><path d="M349.762 357.208h-75.585v57.767h75.585v-57.767z" fill="#fff"/><path d="M317.307 366.701h-26.498v26.483h26.498v-26.483z" fill="#8BBEA8"/><path d="M300.953 373.324v32.157h32.176v-32.157h-32.176zm30.781 30.763h-29.385v-29.368h29.385v29.368z" fill="#448F6E"/><path d="M315.215 420.708h-41.113v2.163h41.113v-2.163z" fill="#F2F2F2"/><path d="M311.969 355.831a4.327 4.327 0 004.328-4.325 4.326 4.326 0 00-4.328-4.325 4.326 4.326 0 100 8.65z" fill="#448F6E"/><path d="M615.55 318.26h-97.816v92.991h97.816V318.26z" fill="#ECECEC"/><path d="M604.435 329.369h-75.586v57.766h75.586v-57.766z" fill="#fff"/><path d="M574.772 374.591h-16.26v4.816h16.26v-4.816zM594.43 337.097h-55.576v2.064h55.576v-2.064zM594.43 343.633h-55.576v2.064h55.576v-2.064zM594.43 350.168h-55.576v2.064h55.576v-2.064zM594.43 356.704h-55.576v2.064h55.576v-2.064zM594.43 363.24h-55.576v2.064h55.576v-2.064z" fill="#448F6E"/><path d="M569.888 392.869h-41.114v2.163h41.114v-2.163zM586.117 398.275h-57.343v2.163h57.343v-2.163z" fill="#F2F2F2"/><path d="M566.642 327.992a4.327 4.327 0 004.328-4.326 4.327 4.327 0 00-4.328-4.325 4.327 4.327 0 00-4.328 4.325 4.327 4.327 0 004.328 4.326z" fill="#448F6E"/></g><defs><clipPath id="clip0"><path fill="#fff" d="M110 157h649v300H110z"/></clipPath></defs></svg>